<?xml version="1.0" encoding="UTF-8"?><svg xmlns="http://www.w3.org/2000/svg" viewBox="0 0 366.71 145.73"><defs><style>.d{fill:#006bab;}.e{fill:none;stroke:#006bab;stroke-miterlimit:10;stroke-width:.75px;}</style></defs><g id="a"/><g id="b"><g id="c"><g><path class="d" d="M9.73,109.97c5.86-25.63,12.94-53.18,19.77-78.65,1.04-3.72,2.04-7.45,3.11-11.16l9.65,4.76c-4.55,5.73-9.33,11.34-14.8,16.55-4.29,4.01-8.97,7.97-14.63,10.42-2.54,1.06-5.68,1.91-8.55,1.24-3.14-.7-5.07-4.12-3.96-7.18,1.22-3.55,5.12-4.05,6.58-3.5-.08-.02-.24-.05-.31-.06-.09,0-.1-.01-.14-.01-.04,0-.02,0,.03,0,5.18-1.22,9.37-5.26,13.42-8.88,4.88-4.64,9.4-9.92,13.73-15.37,1.82-2.41,5.26-2.89,7.67-1.07,1.85,1.4,2.55,3.72,1.98,5.83-1.42,6.52-3.76,15.96-5.33,22.55l-5.61,22.48c-3.87,14.96-7.72,29.91-11.94,44.78-2.11,6.74-12.02,4.26-10.66-2.72h0Z"/><path class="d" d="M15.71,86.52c7.54-9.31,14.7-18.01,23.92-25.98,3.75-2.94,8-6.47,13.41-5.29,4.57,1.05,6.48,6.2,6.16,10.23-.14,4.09-1.25,8.27-2.27,11.84-1.1,4.06-3.35,12.23-4.46,16.29-.09,.4-.24,1.22-.31,1.63-.19,1.13-.34,2.57-.12,3.55-.09-.25-.26-.43-.53-.7-.42-.38-.99-.54-1.11-.55-.16-.02,0,0,.28-.05,.28-.06,.68-.16,1.12-.34,6.76-2.95,12.79-8.7,18.32-14,3.9-3.86,7.62-7.95,11.17-12.18,4.15-4.19,8.94-9.53,11.15-14.8,.52-1.35,.77-2.3,.6-3.08-.19-.26-.27-.24-.85-.6-3.04-1.8-5.47,1.53-7.13,3.98-4.95,8.33-7.31,20.31-5.01,29.65,.52,1.58,1.11,3.1,2.3,3.58,5.3,.44,12.05-6.6,16.17-10.13,4.91-4.46,9.65-9.22,14.28-14.09,4.63-4.85,9.22-9.88,13.53-14.91,1.81-2.4,5.22-2.88,7.61-1.07,1.84,1.38,2.5,3.66,2,5.76-1.29,7.39-2.85,14.64-4.49,21.94-4.95,21.81-10.76,43.44-18.29,64.52-2.5,6.45-11.99,3.62-10.54-3.13,3.09-12.41,7.79-30.37,11.14-42.92,1.87-7.07,6.72-25.27,8.54-32.11l2.9-10.66,9.61,4.69c-8.88,10.79-18.11,20.98-28.37,30.6-5.75,5.23-11.42,10.72-19.28,12.86-12.02,3.08-18.84-6.98-19.63-17.64-1.06-12.74,2.47-28.96,11.67-38.33,3.44-3.62,9.77-6,14.89-4.39,4.19,1.16,8.09,3.75,9.83,8.01,4.08,10.94-7.23,23.21-14.15,30.27l.45-.48c-3.78,4.48-7.74,8.82-11.94,12.96-6.76,6.36-19.23,18.61-29.39,17.56-7.74-1.01-9.42-9.16-8.1-15.6,.16-1.71,2.34-9.1,2.82-10.89l2.32-8.32c.95-3.52,1.98-6.69,1.86-10,.13,.25,.22,.61,.74,1.12,.55,.64,1.98,1.16,2.65,1.02,.29-.05,.02-.02-.29,.13-.33,.15-.76,.38-1.21,.67-5.35,3.62-9.84,8.55-14.47,13.51-3.74,4.12-7.44,8.44-10.9,12.75-4.7,5.48-12.92-1-8.6-6.86h0Z"/><g><circle class="d" cx="134.07" cy="25.18" r="11.5"/><path class="e" d="M145.56,25.18c0,6.35-5.15,11.5-11.5,11.5-15.25-.61-15.25-22.39,0-22.99,6.35,0,11.5,5.15,11.5,11.5h0Z"/></g><g><circle class="d" cx="204.3" cy="19.19" r="11.55"/><path class="e" d="M215.84,19.19c0,6.38-5.17,11.55-11.55,11.55-15.32-.61-15.31-22.49,0-23.09,6.38,0,11.55,5.17,11.55,11.55h0Z"/></g><path class="d" d="M86.82,130.04c-26.48,3.91-53.15,8.72-79.03,15.49-2.94,.8-5.98-.95-6.76-3.9-.76-2.87,.9-5.81,3.72-6.67,19.73-5.98,39.63-10.62,59.74-14.8,6.7-1.38,13.35-2.69,20.15-3.92,9.35-1.3,11.5,12.12,2.18,13.79h0Z"/><path class="d" d="M305.36,108.15c-47.08-2.88-94.59,1.24-141.05,9.02-5.9,.96-13.98,2.61-19.92,3.7-3.86,.83-7.67-1.69-8.4-5.58-.72-3.82,1.79-7.51,5.61-8.23,.03,0,.1-.02,.13-.02l10.19-1.73c23.58-4.03,47.89-6.77,71.77-8.36,27.54-1.66,55.25-2.15,82.77,.26,7.18,.96,6.21,11.41-1.09,10.95h0Z"/><path class="d" d="M178.46,7.2c-4.79,15.42-10.06,30.85-14.19,46.44-.5,1.92-1.44,5.81-1.86,7.75-.85,4.24-2.07,8.23-2.07,12.29,.01,.31,.07,.46,0,.28-.33-1.06-2.03-2.2-3.14-2.09,3.28-.91,7.39-4.1,10.54-6.47,7.43-5.68,14.64-11.68,21.41-18.12,1.62-1.49,4.04-3.99,5.49-5.5,1.99-2.46,5.67-2.79,8-.61,1.52,1.41,2.05,3.48,1.57,5.35-1.4,8.34-2.75,16.85-3.46,25.11-.21,3.11-.56,6.34-.32,9.27-.02-.6-.68-1.69-1.15-2.23-1.48-1.77-3.95-2.69-6.21-2.23l-.28,.06c-.21,.06-.25,.07-.39,.12-.36,.13-.36,.15-.35,.14,2.52-1.68,4.87-3.99,7.2-6.15,10.59-10.16,25.17-25.91,35.42-36.75,2.47-2.9,6.9-3.18,9.67-.55,1.62,1.53,2.3,3.71,2.03,5.77-.71,9.63-1.52,19.44-.84,28.86,.08,.8,.2,1.59,.31,2.01,.04,.18,.13,.31-.03-.1-.14-.26-.21-.57-1-1.46l-.31-.29c-.77-.72-1.81-1.25-2.82-1.51-.79-.22-1.82-.19-2.2-.12,2.02-1.01,4.42-2.71,6.43-4.36,11.34-9.49,21.16-21.73,28.83-34.5,4.21-6.65,11.98-6,17.22-1.06,6,5.57,11.99,9.82,20.32,8.69,16.79-2.44,32.78-16.99,45.07-28.51,5.07-4.74,12.51,2.12,7.96,7.6-15.71,17.39-39.81,41.3-65.66,35.05-7.38-1.74-13.29-6.51-18.69-10.81-.17-.12-.28-.14,.03,.02,.17,.08,.46,.22,1.03,.35,1.26,.46,4.2-.16,5.25-1.14,1.03-.78,1.14-1.13,1.69-1.92-8.68,14.92-19.53,28.2-33.59,38.59-5.7,3.93-14.84,10.61-21.31,4.23-1.83-2.02-2.29-3.8-2.71-5.71-.67-3.74-.58-7.13-.5-10.64,.31-8.51,1.15-16.53,2.16-24.76l11.7,5.22c-5.67,6.59-11.41,13.02-17.31,19.38-5.89,6.38-11.87,12.64-18.31,18.76-3.73,3.31-7.07,7.06-11.93,9.09-2.97,1.13-6.66,.36-8.72-2.15-1.78-2.03-2.26-5.07-2.23-7.44,.02-3.74,.64-7.21,1.3-10.7,1.74-8.77,3.75-17.15,5.98-25.64l9.57,4.74c-1.03,1.25-1.92,2.26-2.89,3.35-8.55,9.41-18.08,17.86-28.11,25.64-4.04,2.92-8.76,6.53-14.38,6.89-3.93,.37-8.31-2.53-9.47-6.31-1.41-3.95-.83-7.71-.3-11.47,2.03-11.24,4.87-22.15,8.27-32.76,3.44-10.64,7.33-20.96,12.11-31.1,3.12-6.12,12.18-2.45,10.22,4.08h0Z"/></g></g></g></svg>