<?xml version="1.0" encoding="UTF-8"?><svg xmlns="http://www.w3.org/2000/svg" viewBox="0 0 366.67 145.74"><defs><style>.d{fill:#fcdfeb;}</style></defs><g id="a"/><g id="b"><g id="c"><g><path class="d" d="M9.73,109.98c1.7-7.54,3.51-15.04,5.34-22.55,1.82-7.51,3.74-14.99,5.6-22.48l5.83-22.42,3-11.19c1.04-3.72,2.04-7.45,3.11-11.16l9.65,4.76h0c-4.55,5.73-9.32,11.34-14.8,16.55-2.75,2.6-5.66,5.1-9.03,7.35-1.69,1.12-3.49,2.18-5.6,3.07-1.06,.44-2.18,.84-3.48,1.13-.64,.15-1.36,.26-2.15,.32-.4,.03-.83,.04-1.31,.01-.26-.02-.49-.03-.8-.08-.14-.02-.3-.04-.49-.08l-.31-.07c-.15-.04-.18-.04-.59-.17-2.87-1-4.38-4.14-3.37-7.01,1-2.87,4.14-4.38,7.01-3.37-.35-.12-.33-.1-.42-.13l-.15-.03-.16-.03c-.09,0-.1-.01-.14-.01-.04,0-.02,0,.03,0,.1-.01,.27-.03,.5-.08,.44-.09,1.01-.29,1.6-.54,1.19-.5,2.49-1.24,3.77-2.09,2.58-1.71,5.11-3.86,7.55-6.17,4.88-4.64,9.4-9.92,13.73-15.37h0c1.82-2.41,5.26-2.89,7.67-1.07,1.76,1.33,2.49,3.52,2.04,5.55l-.06,.28c-.84,3.77-1.74,7.53-2.61,11.29l-2.72,11.26-5.61,22.48c-1.95,7.47-3.84,14.96-5.84,22.42-1.99,7.46-3.99,14.92-6.1,22.36-.83,2.92-3.87,4.62-6.8,3.79-2.82-.8-4.5-3.68-3.86-6.51Z"/><path class="d" d="M15.7,86.54c3.65-4.61,7.34-9,11.24-13.36,3.93-4.34,7.9-8.59,12.68-12.62,1.22-1,2.49-1.99,3.98-2.96,.75-.48,1.56-.95,2.52-1.41,.98-.44,2.07-.91,3.78-1.13,.85-.09,1.9-.11,3.13,.2,1.22,.3,2.56,1.04,3.47,1.97,.94,.93,1.48,1.91,1.83,2.74,.35,.83,.52,1.55,.64,2.21,.22,1.29,.24,2.34,.22,3.31-.03,.97-.11,1.85-.22,2.7-.45,3.34-1.24,6.32-2.05,9.15l-2.23,8.15-2.22,8.14-.15,.76-.15,.87c-.08,.56-.16,1.12-.19,1.62-.05,.51-.04,.96-.02,1.32,.02,.37,.09,.61,.09,.61,0,.01,0-.04-.02-.05-.01-.03-.04-.1-.08-.14-.08-.15-.22-.31-.43-.51-.42-.38-.99-.54-1.11-.55-.16-.02,0,0,.28-.05,.28-.06,.68-.16,1.12-.34,1.82-.69,4.03-2.02,6.11-3.49,4.22-3,8.31-6.67,12.21-10.51,3.9-3.86,7.62-7.95,11.17-12.18,.13-.15,.26-.3,.4-.43l.05-.05c.46-.45,1.07-1.06,1.59-1.62,.54-.57,1.08-1.16,1.61-1.75,1.05-1.18,2.06-2.39,3.01-3.62,1.88-2.44,3.56-5.03,4.49-7.34,.47-1.14,.68-2.19,.66-2.7,0-.26-.05-.35-.05-.38l-.09-.1c-.1-.09-.27-.23-.76-.49-.41-.22-.77-.36-1.09-.44-.64-.15-1.01-.13-1.59,.06-.57,.2-1.34,.67-2.13,1.45-.79,.77-1.59,1.78-2.31,2.92-1.46,2.29-2.65,5.06-3.58,7.93-1.82,5.74-2.69,12.13-2.17,17.8,.14,1.4,.38,2.75,.73,3.92,.35,1.16,.81,2.16,1.26,2.74,.47,.61,.73,.73,1.04,.84,.31,.1,.98,.15,1.95-.1,1.96-.47,4.53-1.96,6.89-3.74,1.21-.9,2.35-1.87,3.62-2.99,1.25-1.07,2.48-2.18,3.7-3.3,4.91-4.46,9.65-9.22,14.28-14.09,4.63-4.85,9.22-9.88,13.53-14.91h0c1.81-2.4,5.22-2.88,7.61-1.07,1.68,1.26,2.41,3.31,2.09,5.24l-.09,.51c-.63,3.72-1.39,7.35-2.11,11.02-.76,3.65-1.57,7.29-2.38,10.92-1.6,7.28-3.41,14.51-5.28,21.72-1.87,7.21-3.87,14.39-6.02,21.53-2.12,7.15-4.48,14.23-6.99,21.26-1.02,2.86-4.17,4.36-7.04,3.33-2.68-.96-4.15-3.77-3.5-6.47l.02-.06c1.76-7.17,3.61-14.31,5.47-21.45l5.65-21.41,5.69-21.41,2.85-10.7,2.9-10.66,9.61,4.69h0c-8.88,10.79-18.11,20.98-28.36,30.6-1.28,1.2-2.58,2.38-3.92,3.54-1.28,1.15-2.74,2.39-4.27,3.54-1.54,1.15-3.15,2.26-4.96,3.27-1.8,1-3.79,1.92-6.14,2.52-1.18,.3-2.45,.51-3.83,.54-1.38,.04-2.87-.13-4.34-.56-1.47-.44-2.9-1.14-4.1-2.04-1.22-.89-2.22-1.94-3.02-3.01-1.61-2.15-2.51-4.35-3.15-6.44-.63-2.1-.98-4.14-1.18-6.13-.4-3.98-.24-7.81,.24-11.56,.49-3.75,1.29-7.43,2.46-11.05,1.18-3.62,2.68-7.19,4.89-10.67,1.11-1.73,2.41-3.45,4.08-5.05,1.66-1.59,3.75-3.13,6.41-4.07,2.63-.96,5.83-1.07,8.49-.33,1.34,.35,2.56,.87,3.65,1.46,1.01,.54,2.29,1.34,3.41,2.45,1.13,1.1,2.13,2.54,2.77,4.11,.62,1.56,.89,3.18,.9,4.62,0,2.91-.71,5.22-1.51,7.24-1.66,4.02-3.84,7.15-6.11,10.12-1.14,1.47-2.33,2.88-3.55,4.25-.61,.68-1.23,1.35-1.87,2.02-.65,.68-1.24,1.29-2.01,2.02l.45-.48c-3.78,4.48-7.74,8.82-11.94,12.96-4.23,4.14-8.64,8.11-13.71,11.7-2.58,1.78-5.23,3.5-8.74,4.85-.89,.33-1.86,.63-2.97,.85-1.12,.21-2.4,.36-3.97,.16-.77-.09-1.64-.31-2.5-.66-.87-.38-1.74-.89-2.47-1.55-.75-.65-1.33-1.39-1.8-2.13-.2-.35-.41-.73-.58-1.09-.15-.34-.31-.71-.41-1.04-.45-1.35-.61-2.53-.68-3.58-.06-1.06-.05-2.04,.03-2.94,.06-.92,.18-1.77,.32-2.62l.22-1.23,.28-1.33,2.31-8.33,2.32-8.32c.77-2.64,1.42-5.19,1.75-7.49,.08-.56,.13-1.1,.14-1.56,.02-.46-.01-.83-.03-.95,0-.04-.01-.02,.06,.16,.07,.17,.25,.53,.67,.96,.41,.43,1.11,.81,1.64,.93,.53,.14,.86,.1,1.01,.09,.29-.05,.02-.02-.29,.13-.33,.15-.76,.38-1.21,.67-.91,.57-1.9,1.31-2.88,2.12-3.97,3.27-7.85,7.31-11.59,11.39-3.73,4.1-7.41,8.41-10.86,12.7l-.04,.05c-1.9,2.37-5.37,2.74-7.73,.84-2.35-1.89-2.74-5.33-.86-7.7Z"/><circle class="d" cx="134.06" cy="25.2" r="11.5"/><circle class="d" cx="204.29" cy="19.21" r="11.55"/><path class="d" d="M86.81,130.06c-6.58,.94-13.27,2.01-19.89,3.12-6.64,1.12-13.26,2.31-19.87,3.58-13.21,2.54-26.35,5.38-39.27,8.8h-.03c-2.94,.79-5.95-.97-6.72-3.9-.76-2.87,.9-5.81,3.72-6.67,13.16-4,26.42-7.37,39.73-10.44,6.66-1.53,13.33-2.98,20.01-4.36,6.7-1.38,13.35-2.69,20.15-3.92,3.79-.68,7.43,1.84,8.11,5.63,.68,3.79-1.84,7.43-5.63,8.11-.07,.01-.15,.03-.22,.04h-.08Z"/><path class="d" d="M305.36,108.17c-1.56-.13-3.27-.24-4.92-.33-1.66-.1-3.35-.17-5.02-.24-3.35-.14-6.72-.23-10.09-.29-3.37-.05-6.74-.1-10.12-.07l-5.06,.02-5.06,.1c-13.5,.29-27.01,.99-40.47,2.11-3.37,.26-6.73,.63-10.09,.94l-5.04,.48-5.03,.58-10.07,1.18-10.04,1.4c-6.7,.87-13.35,2.07-20.02,3.13-3.34,.51-6.64,1.21-9.97,1.82l-9.95,1.88-.17,.03c-3.82,.72-7.51-1.79-8.23-5.61s1.79-7.51,5.61-8.23c.03,0,.1-.02,.13-.02l10.19-1.73c3.4-.55,6.78-1.21,10.2-1.66,6.82-.96,13.62-2.05,20.46-2.81l10.25-1.23,10.28-1.01,5.14-.49,5.15-.4c3.43-.25,6.86-.56,10.3-.76,13.74-.88,27.5-1.34,41.27-1.37h5.17l5.17,.07c3.44,.03,6.89,.15,10.34,.26,3.45,.12,6.9,.28,10.35,.49,1.73,.11,3.45,.21,5.19,.35,1.75,.13,3.44,.27,5.28,.45,3.02,.3,5.23,3,4.92,6.02-.3,2.98-2.93,5.17-5.91,4.93h-.11Z"/><path class="d" d="M178.45,7.22c-3.21,10.28-6.61,20.65-9.76,30.96-1.56,5.16-3.09,10.32-4.44,15.49l-.98,3.88-.88,3.87c-.59,2.68-1.2,5.36-1.63,7.75-.21,1.2-.37,2.36-.43,3.33-.03,.48-.03,.91-.01,1.21,.01,.31,.07,.46,0,.28-.04-.1-.12-.31-.33-.59-.2-.28-.55-.64-.97-.92-.42-.28-.88-.45-1.21-.52-.34-.07-.51-.07-.63-.06-.17,.01,0,.01,.3-.07,.29-.08,.7-.23,1.13-.42,1.79-.8,3.92-2.17,5.97-3.62l1.55-1.13,1.6-1.22c1.07-.81,2.13-1.62,3.18-2.46,4.21-3.32,8.32-6.74,12.34-10.26,1.99-1.77,3.97-3.57,5.88-5.4l2.84-2.77c.91-.91,1.88-1.91,2.65-2.73l.3-.32c2.05-2.21,5.49-2.34,7.7-.29,1.52,1.41,2.05,3.48,1.57,5.35h0c-1.4,8.34-2.75,16.85-3.46,25.11-.16,2.06-.32,4.1-.37,6-.02,.94-.05,1.86,0,2.57,.01,.35,.04,.66,.06,.7,0-.03,.01-.03-.1-.41-.04-.11-.17-.48-.35-.81-.14-.28-.32-.54-.51-.78l-.19-.24c-.09-.1-.18-.2-.27-.3-.19-.2-.39-.38-.6-.55-.41-.34-.87-.63-1.35-.86-.42-.2-.83-.35-1.27-.45-.37-.09-.66-.14-1-.16l-.4-.02h-.34l-.33,.02-.22,.02c-.14,.02-.31,.05-.42,.07l-.28,.06c-.21,.06-.25,.07-.39,.12-.36,.13-.36,.15-.35,.14,.06-.03,.35-.22,.64-.43,.61-.44,1.35-1.03,2.07-1.65,1.47-1.25,2.98-2.65,4.48-4.07,3-2.86,5.99-5.87,8.95-8.91,2.96-3.04,5.94-6.09,8.88-9.18l17.59-18.65,.26-.27c2.52-2.68,6.74-2.8,9.42-.28,1.62,1.53,2.3,3.71,2.03,5.76h0c-.64,7.8-1.14,15.85-1.09,23.46,.02,1.88,.08,3.76,.25,5.41,.08,.8,.2,1.59,.31,2.01,.04,.18,.13,.31-.03-.1-.14-.26-.21-.57-1-1.46l-.31-.29c-.14-.14-.3-.26-.46-.38-.16-.12-.33-.23-.49-.33-.2-.12-.44-.26-.68-.37-.24-.11-.49-.21-.74-.29-.23-.07-.29-.09-.45-.13-.27-.07-.58-.11-.73-.14-.84-.08-1.09-.02-1.3,0l-.17,.02s-.05,0-.04,0c.02-.02,.24-.11,.48-.23,.5-.25,1.16-.64,1.83-1.06,1.35-.87,2.77-1.93,4.17-3.06,5.61-4.6,10.88-10.16,15.71-15.95,4.85-5.82,9.24-12.04,13.12-18.55l.08-.13c.13-.21,.27-.42,.41-.61,.5-.67,1.17-1.45,2.22-2.23,1.03-.78,2.52-1.5,4.07-1.77,1.54-.28,2.93-.15,3.96,.08,1.04,.23,1.8,.55,2.41,.83,1.19,.58,1.91,1.09,2.54,1.54,.61,.45,1.1,.85,1.54,1.22,1.73,1.48,2.97,2.62,4.27,3.65,2.53,2.04,4.97,3.44,7.58,4.29,2.6,.84,5.43,1.09,8.47,.75,3.03-.33,6.21-1.23,9.38-2.53,6.35-2.61,12.61-6.57,18.53-11.09,5.93-4.53,11.66-9.56,17.15-14.89h0c2.18-2.13,5.66-2.08,7.78,.1,2.02,2.08,2.05,5.36,.16,7.49-5.31,5.97-10.88,11.79-17.06,17.16-3.09,2.68-6.32,5.26-9.76,7.67-3.44,2.41-7.08,4.65-11.06,6.53-3.97,1.88-8.29,3.43-13,4.23-4.69,.81-9.85,.76-14.78-.53-4.94-1.24-9.45-3.75-13.1-6.46-1.82-1.33-3.52-2.77-4.81-3.78-.31-.24-.59-.45-.78-.57-.17-.12-.28-.14,.03,.02,.17,.08,.46,.22,1.03,.35,.55,.13,1.45,.23,2.5,.04,1.06-.18,2.1-.69,2.74-1.17,.66-.49,.99-.91,1.2-1.19l.49-.74c-4.25,7.4-9.18,14.39-14.72,20.9-5.58,6.49-11.71,12.46-18.87,17.69-1.81,1.31-3.68,2.57-5.79,3.78-1.07,.6-2.17,1.19-3.51,1.76-.68,.29-1.41,.57-2.35,.84-.23,.07-.48,.13-.76,.19-.26,.06-.58,.12-.91,.17-.7,.09-1.46,.21-2.8,.06-.27-.03-.71-.1-1.1-.2-.22-.06-.35-.08-.64-.18-.31-.1-.61-.23-.91-.36-.29-.14-.6-.3-.85-.45-.22-.14-.44-.29-.64-.45s-.41-.32-.61-.5c-.19-.17-.29-.28-.44-.43-1.14-1.25-1.45-2.01-1.8-2.73-.57-1.33-.74-2.18-.91-2.98-.3-1.55-.39-2.77-.46-3.97-.13-2.37-.1-4.52-.04-6.67,.31-8.51,1.15-16.53,2.16-24.76h0l11.7,5.21c-5.67,6.59-11.41,13.02-17.31,19.38-5.89,6.38-11.87,12.64-18.31,18.76-1.62,1.53-3.27,3.06-5.08,4.59-.91,.77-1.85,1.54-2.98,2.35-.58,.41-1.18,.83-2.06,1.32-.46,.25-.94,.51-1.8,.82-.26,.09-.43,.15-.77,.24l-.47,.11c-.17,.04-.41,.07-.62,.1l-.32,.04-.43,.02h-.44c-.14,0-.29,0-.5-.02-.41-.04-.76-.09-1.2-.19-.5-.13-.98-.29-1.46-.52-.54-.26-1.06-.59-1.53-.96-.23-.19-.46-.4-.67-.62l-.31-.34-.22-.27c-.27-.36-.51-.73-.73-1.12-.3-.57-.55-1.18-.66-1.55-.28-.88-.36-1.42-.45-1.98-.14-1.03-.16-1.79-.17-2.52,.01-1.44,.09-2.67,.23-3.87,.27-2.39,.63-4.62,1.07-6.82,1.74-8.77,3.75-17.15,5.98-25.63h0l9.57,4.74c-1.03,1.25-1.92,2.26-2.89,3.35-.95,1.06-1.92,2.1-2.9,3.13-1.96,2.05-3.96,4.03-5.98,5.99-4.05,3.91-8.26,7.63-12.59,11.2-1.07,.9-2.17,1.78-3.26,2.66l-1.64,1.32-1.74,1.34c-2.38,1.78-4.8,3.52-7.96,5.09-.81,.39-1.68,.76-2.69,1.1-1.02,.33-2.19,.63-3.73,.71-.8,.02-1.66,0-2.67-.23-1-.22-2.1-.65-3.09-1.31-1-.65-1.84-1.52-2.43-2.36-.6-.84-.99-1.67-1.27-2.41-.53-1.47-.7-2.68-.79-3.74-.09-1.07-.08-2.01-.04-2.9,.08-1.77,.3-3.33,.53-4.84,2.03-11.24,4.87-22.15,8.27-32.76,1.69-5.31,3.57-10.55,5.56-15.73,2.02-5.19,4.12-10.28,6.55-15.37,1.31-2.75,4.6-3.91,7.35-2.6,2.51,1.2,3.7,4.04,2.89,6.61l-.02,.07Z"/></g></g></g></svg>