<svg xmlns="http://www.w3.org/2000/svg" width="141.757" height="57.389" viewBox="0 0 141.757 57.389">
  <g id="Group_1" data-name="Group 1" transform="translate(-354.771 -284.19)">
    <path id="Path_1" data-name="Path 1" d="M357.8,324.331c3.093.777,10.3-3.33,12.042-8.484s-7.645,32.4-7.645,32.4" transform="translate(0 -20.941)" fill="none" stroke="#0045ff" stroke-linecap="round" stroke-width="5"/>
    <path id="Path_2" data-name="Path 2" d="M385.387,363.4s11.725-12.371,11.325-7.916-5.188,17.767.68,15.388,17.123-16.062,17.1-19.236-3.892-2.729-5.27-2.116-3.449,2.013-4.385,7.526.12,11.393,4.385,10.716,15.849-12.434,16.926-14.8-8,30.725-8,30.725" transform="translate(-20.678 -46.219)" fill="none" stroke="#0045ff" stroke-linecap="round" stroke-width="5"/>
    <path id="Path_3" data-name="Path 3" d="M591.869,287.428s-11.127,28.472-5.773,27.5,13.917-12.627,15.614-11.777-3.589,14.826-1.05,13.817,14.921-16.129,16.4-16.616-3.18,14.884,1.408,13.161,13.58-13.807,14.845-15.869,4.238,5.267,11.94,3.99,17.793-11.762,17.793-11.762" transform="translate(-170.055 0)" fill="none" stroke="#0045ff" stroke-linecap="round" stroke-width="5"/>
    <path id="Path_4" data-name="Path 4" d="M364.517,472.761s21.814-5.364,29.114-6.316" transform="translate(-5.032 -134.207)" fill="none" stroke="#0045ff" stroke-linecap="round" stroke-width="5"/>
    <path id="Path_5" data-name="Path 5" d="M567.117,437.79c4.7-.88,35.814-6.428,61.33-4.462" transform="translate(-156.919 -109.065)" fill="none" stroke="#0045ff" stroke-linecap="round" stroke-width="5"/>
    <circle id="Ellipse_1" data-name="Ellipse 1" cx="4.506" cy="4.506" r="4.506" transform="translate(402.659 290.575)" fill="#0045ff"/>
    <circle id="Ellipse_2" data-name="Ellipse 2" cx="4.506" cy="4.506" r="4.506" transform="translate(429.192 288.322)" fill="#0045ff"/>
  </g>
</svg>
